<svg xmlns="http://www.w3.org/2000/svg" viewBox="0 0 900 500" font-family="Georgia, 'Times New Roman', serif">
  <!-- Logo composition mock: layout and spirit guide, not final art.
       Intended final medium: hand-lettering + watercolor. -->
  <rect width="900" height="500" fill="#f5f0e4"/>
  <!-- watercolor-ish sky blooms -->
  <ellipse cx="240" cy="120" rx="220" ry="90" fill="#bcd3d8" opacity="0.4"/>
  <ellipse cx="640" cy="90" rx="260" ry="80" fill="#e8d3a8" opacity="0.45"/>
  <ellipse cx="460" cy="150" rx="330" ry="110" fill="#cfdcd2" opacity="0.35"/>

  <!-- the pole, off-center right -->
  <rect x="618" y="96" width="14" height="270" rx="6" fill="#5a5750"/>
  <circle cx="625" cy="92" r="16" fill="#e8c86a" opacity="0.9"/>

  <!-- leash spiral around the pole (the whirl) -->
  <path d="M 625 210 c 60 -12 74 50 8 56 c -84 8 -96 -74 6 -84 c 120 -12 140 96 -10 112 c -150 16 -170 -120 40 -132"
        fill="none" stroke="#b8402e" stroke-width="7" stroke-linecap="round"/>
  <!-- leash flying off to the owner -->
  <path d="M 659 162 C 740 120 780 150 812 210" fill="none" stroke="#b8402e" stroke-width="7" stroke-linecap="round"/>

  <!-- the owner, airborne, phone first -->
  <g transform="translate(812 228) rotate(38)">
    <ellipse cx="0" cy="0" rx="26" ry="34" fill="#46586e"/>
    <circle cx="4" cy="-40" r="16" fill="#e3bf98"/>
    <path d="M -12 -50 a 16 16 0 0 1 30 -4" fill="none" stroke="#4a3826" stroke-width="8"/>
    <rect x="26" y="-64" width="16" height="26" rx="3" fill="#20242c"/>
    <rect x="29" y="-60" width="10" height="18" rx="2" fill="#9fc4e8"/>
    <line x1="10" y1="-34" x2="30" y2="-52" stroke="#e3bf98" stroke-width="7" stroke-linecap="round"/>
    <line x1="-16" y1="22" x2="-34" y2="44" stroke="#3a4a5e" stroke-width="9" stroke-linecap="round"/>
    <line x1="8" y1="26" x2="20" y2="50" stroke="#3a4a5e" stroke-width="9" stroke-linecap="round"/>
  </g>
  <text x="762" y="150" font-size="26" fill="#6a675e" font-style="italic">aaaa!</text>

  <!-- Millie, planted, at the spiral's root -->
  <g transform="translate(500 330)">
    <ellipse cx="0" cy="0" rx="44" ry="24" fill="#23211f"/>
    <circle cx="-40" cy="-8" r="17" fill="#23211f"/>
    <ellipse cx="-58" cy="-10" rx="12" ry="7" fill="#35322e"/>
    <circle cx="-68" cy="-10" r="3.5" fill="#151312"/>
    <path d="M -46 -22 q -12 14 -2 20" fill="none" stroke="#151312" stroke-width="9" stroke-linecap="round"/>
    <path d="M -30 -22 q 10 12 2 18" fill="none" stroke="#151312" stroke-width="9" stroke-linecap="round"/>
    <path d="M 40 -6 q 26 -16 24 -34" fill="none" stroke="#23211f" stroke-width="7" stroke-linecap="round"/>
    <rect x="-22" y="-20" width="30" height="14" rx="6" fill="#b8402e"/>
    <ellipse cx="-33" cy="4" rx="5" ry="4" fill="#57534c"/>
    <line x1="-26" y1="16" x2="-30" y2="26" stroke="#23211f" stroke-width="8" stroke-linecap="round"/>
    <line x1="18" y1="18" x2="26" y2="28" stroke="#23211f" stroke-width="8" stroke-linecap="round"/>
  </g>

  <!-- grass baseline growing into the lettering -->
  <g stroke="#5d7a4c" stroke-width="4" stroke-linecap="round" opacity="0.85">
    <path d="M 90 372 q 4 -22 -4 -34"/><path d="M 108 374 q -2 -18 8 -30"/>
    <path d="M 300 376 q 6 -20 -2 -30"/><path d="M 560 374 q -4 -18 6 -28"/>
    <path d="M 700 376 q 4 -20 -4 -30"/><path d="M 820 372 q -2 -18 8 -26"/>
  </g>

  <!-- title lettering -->
  <text x="80" y="428" font-size="58" fill="#2c2a26" letter-spacing="2" font-weight="bold">PATH OF <tspan fill="#b8402e">LEASH</tspan></text>
  <text x="80" y="478" font-size="58" fill="#2c2a26" letter-spacing="2" font-weight="bold">RESISTANCE</text>
  <!-- leash underline continuing from the R into a collar ring -->
  <path d="M 480 462 q 160 26 330 -6" fill="none" stroke="#b8402e" stroke-width="6" stroke-linecap="round"/>
  <circle cx="822" cy="452" r="10" fill="none" stroke="#b8402e" stroke-width="6"/>
  <text x="620" y="496" font-size="19" fill="#6a675e" font-style="italic">you are the dog. go touch grass.</text>
</svg>
